<svg width="455" height="63" viewBox="0 0 455 63" fill="none" xmlns="http://www.w3.org/2000/svg">
<g clip-path="url(#clip0)">
<path d="M54.5764 14.9407L28.974 3.5234C28.3541 3.24484 27.6457 3.24484 27.0226 3.5234L1.42143 14.9407C0.585753 15.3128 0.0338904 16.1318 0.00289911 17.0472C-0.0270048 17.9608 0.46215 18.8144 1.27028 19.2443L26.8711 32.8973C27.2241 33.0867 27.6111 33.1793 27.9991 33.1793C28.3891 33.1793 28.7755 33.0867 29.1291 32.8973L54.7312 19.2443C55.5386 18.8144 56.0283 17.9608 55.9989 17.0472C55.9639 16.1318 55.4133 15.3128 54.5764 14.9407Z" fill="white"/>
<path d="M52.4726 25.1564L27.9976 38.2126L3.52665 25.1564C2.35514 24.5313 0.904535 24.9748 0.283622 26.1441C-0.341641 27.3129 0.101842 28.7632 1.27009 29.3866L26.8709 43.0435C27.2239 43.2316 27.6109 43.3253 27.9989 43.3253C28.3889 43.3253 28.7753 43.2328 29.1289 43.0435L54.731 29.3866C55.8965 28.7632 56.3394 27.3129 55.7178 26.1441C55.0922 24.9746 53.6405 24.5311 52.4726 25.1564Z" fill="white"/>
<path d="M52.4726 34.521L27.9976 47.5729L3.52665 34.521C2.35514 33.8954 0.904535 34.3394 0.283622 35.5071C-0.341641 36.6759 0.101842 38.1276 1.27009 38.7502L26.8709 52.4026C27.2239 52.592 27.6109 52.6857 27.9989 52.6857C28.3889 52.6857 28.7753 52.5933 29.1289 52.4026L54.731 38.7502C55.8965 38.1276 56.3394 36.6761 55.7178 35.5071C55.0922 34.3394 53.6425 33.8952 52.4726 34.521Z" fill="white"/>
</g>
<path d="M90.5664 6.38281L96.1172 28.2578L98.2227 37.4453L99.8086 28.2578L104.812 6.38281H116.68L121.656 48H113.125L111.074 25.6875L110.336 12.9453L107.273 25.6875L101.312 48.4102H94.4219L87.832 25.6875L84.7422 12.9453L83.7578 25.6875L81.9805 48L73.9141 48.0273L78.3438 6.38281H90.5664ZM138.488 16.2266C141.514 16.2266 143.929 16.5638 145.734 17.2383C147.557 17.8945 148.915 19.0521 149.808 20.7109C150.702 22.3516 151.148 24.6576 151.148 27.6289V48.4375H146.172C145.351 48.4375 144.731 48.3828 144.312 48.2734C143.893 48.1641 143.565 47.9089 143.328 47.5078C143.091 47.1068 142.972 46.4688 142.972 45.5938V45.375C142.024 46.25 140.858 46.9792 139.472 47.5625C138.087 48.1458 136.547 48.4375 134.851 48.4375C132.846 48.4375 131.069 48.0091 129.519 47.1523C127.988 46.2773 126.794 45.0742 125.937 43.543C125.099 41.9935 124.679 40.2435 124.679 38.293C124.679 36.4701 125.144 34.9115 126.074 33.6172C127.022 32.3229 128.371 31.2839 130.121 30.5C132.837 29.2969 137.002 28.6953 142.617 28.6953V26.7266C142.617 25.5599 142.462 24.7031 142.152 24.1562C141.86 23.6094 141.286 23.2357 140.429 23.0352C139.591 22.8346 138.26 22.7344 136.437 22.7344C135.562 22.7344 134.231 22.9622 132.445 23.418C130.659 23.8555 129.127 24.3659 127.851 24.9492L125.965 19.4805C126.694 19.043 127.751 18.569 129.136 18.0586C130.522 17.5482 132.044 17.1198 133.703 16.7734C135.362 16.4089 136.957 16.2266 138.488 16.2266ZM137.777 42.668C138.688 42.668 139.646 42.4857 140.648 42.1211C141.651 41.7383 142.307 41.3464 142.617 40.9453V33.5078C141.578 33.5078 140.402 33.6263 139.09 33.8633C137.795 34.082 136.829 34.3372 136.191 34.6289C135.371 34.9388 134.715 35.3581 134.222 35.8867C133.73 36.4154 133.484 37.1992 133.484 38.2383C133.484 39.6966 133.876 40.7995 134.66 41.5469C135.462 42.2943 136.501 42.668 137.777 42.668ZM166.175 16.8281L166.339 20.1641C167.597 19.2161 169.165 18.3503 171.042 17.5664C172.92 16.7826 174.734 16.3633 176.484 16.3086C178.726 16.2357 180.558 16.5911 181.98 17.375C183.402 18.1406 184.459 19.4258 185.152 21.2305C185.863 23.0169 186.218 25.4232 186.218 28.4492V48H177.687V30.2812C177.687 28.513 177.55 27.1458 177.277 26.1797C177.003 25.1953 176.538 24.4935 175.882 24.0742C175.226 23.6549 174.296 23.4635 173.093 23.5C172.182 23.5182 171.152 23.7279 170.003 24.1289C168.855 24.5299 167.843 25.1133 166.968 25.8789V48H158.437V16.8281H166.175ZM220.741 16.8281L211.034 48.8203C209.94 52.3932 208.482 55.2005 206.659 57.2422C204.836 59.2839 202.804 60.6328 200.562 61.2891C200.088 61.4349 199.386 61.5625 198.456 61.6719C197.545 61.7995 196.861 61.8633 196.405 61.8633C195.931 61.8633 195.157 61.7995 194.081 61.6719C193.006 61.5625 192.395 61.4531 192.249 61.3438V54.4258C192.577 54.5352 193.097 54.6536 193.808 54.7812C194.537 54.9089 195.047 54.9727 195.339 54.9727C196.633 54.9727 197.745 54.8542 198.675 54.6172C199.623 54.3802 200.552 53.7513 201.464 52.7305C202.394 51.7279 203.132 50.151 203.679 48H200.015L189.433 16.8281H198.675L203.405 33.4805L205.675 42.4766L207.78 33.4805L211.581 16.8281H220.741ZM225.159 39.0039C226.49 39.7331 228.094 40.3529 229.971 40.8633C231.849 41.3737 233.818 41.6289 235.878 41.6289C238.12 41.6289 239.697 41.2917 240.608 40.6172C241.52 39.9245 241.975 38.849 241.975 37.3906C241.975 36.4062 241.747 35.5768 241.292 34.9023C240.836 34.2096 240.061 33.5169 238.967 32.8242C237.892 32.1315 236.206 31.2201 233.909 30.0898C230.846 28.5768 228.358 26.8086 226.444 24.7852C224.53 22.7617 223.573 20.2188 223.573 17.1562C223.573 14.5312 224.211 12.3893 225.487 10.7305C226.781 9.05339 228.513 7.84115 230.682 7.09375C232.87 6.32812 235.34 5.94531 238.092 5.94531C240.462 5.94531 242.613 6.20052 244.546 6.71094C246.496 7.22135 247.927 7.76823 248.839 8.35156L247.417 15.1055C246.177 14.3216 244.819 13.6836 243.342 13.1914C241.884 12.6992 240.216 12.4531 238.339 12.4531C236.133 12.4531 234.538 12.8268 233.553 13.5742C232.587 14.3034 232.104 15.3516 232.104 16.7188C232.104 17.6849 232.341 18.5143 232.815 19.207C233.307 19.8997 234.027 20.5651 234.975 21.2031C235.923 21.8229 237.363 22.6432 239.296 23.6641C241.921 25.0495 244.008 26.2982 245.557 27.4102C247.125 28.5039 248.374 29.8164 249.303 31.3477C250.251 32.8789 250.725 34.7109 250.725 36.8438C250.725 39.2865 250.133 41.3828 248.948 43.1328C247.763 44.8646 246.086 46.1862 243.917 47.0977C241.766 47.9909 239.268 48.4375 236.425 48.4375C234.729 48.4375 233.016 48.3008 231.284 48.0273C229.57 47.7721 228.048 47.4531 226.717 47.0703C225.405 46.6875 224.475 46.3229 223.928 45.9766L225.159 39.0039ZM256.893 22.7344H253.147V18.1133C254.35 17.7669 255.216 17.5026 255.745 17.3203C256.291 17.1198 256.774 16.8555 257.194 16.5273C257.613 16.181 257.941 15.7253 258.178 15.1602C258.561 14.2487 259.245 12.4349 260.229 9.71875H265.424V16.8281H273.873V22.7344H265.424V35.2578C265.424 37.3359 265.534 38.849 265.752 39.7969C265.971 40.7448 266.317 41.3555 266.791 41.6289C267.265 41.8841 267.995 42.0117 268.979 42.0117C269.745 42.0117 270.62 41.8841 271.604 41.6289C272.607 41.3555 273.345 41.0456 273.819 40.6992L274.858 45.4844C274.001 46.25 272.716 46.9336 271.002 47.5352C269.307 48.1367 267.475 48.4375 265.506 48.4375C263.41 48.4375 261.733 48.1185 260.475 47.4805C259.235 46.8242 258.324 45.7943 257.741 44.3906C257.176 42.9688 256.893 41.082 256.893 38.7305V22.7344ZM291.033 16.2266C294.059 16.2266 296.475 16.5638 298.279 17.2383C300.102 17.8945 301.46 19.0521 302.354 20.7109C303.247 22.3516 303.693 24.6576 303.693 27.6289V48.4375H298.717C297.897 48.4375 297.277 48.3828 296.857 48.2734C296.438 48.1641 296.11 47.9089 295.873 47.5078C295.636 47.1068 295.518 46.4688 295.518 45.5938V45.375C294.57 46.25 293.403 46.9792 292.018 47.5625C290.632 48.1458 289.092 48.4375 287.397 48.4375C285.391 48.4375 283.614 48.0091 282.065 47.1523C280.533 46.2773 279.339 45.0742 278.482 43.543C277.644 41.9935 277.225 40.2435 277.225 38.293C277.225 36.4701 277.69 34.9115 278.619 33.6172C279.567 32.3229 280.916 31.2839 282.666 30.5C285.382 29.2969 289.548 28.6953 295.162 28.6953V26.7266C295.162 25.5599 295.007 24.7031 294.697 24.1562C294.406 23.6094 293.831 23.2357 292.975 23.0352C292.136 22.8346 290.805 22.7344 288.982 22.7344C288.107 22.7344 286.777 22.9622 284.99 23.418C283.204 23.8555 281.673 24.3659 280.397 24.9492L278.51 19.4805C279.239 19.043 280.296 18.569 281.682 18.0586C283.067 17.5482 284.589 17.1198 286.248 16.7734C287.907 16.4089 289.502 16.2266 291.033 16.2266ZM290.322 42.668C291.234 42.668 292.191 42.4857 293.193 42.1211C294.196 41.7383 294.852 41.3464 295.162 40.9453V33.5078C294.123 33.5078 292.947 33.6263 291.635 33.8633C290.341 34.082 289.374 34.3372 288.736 34.6289C287.916 34.9388 287.26 35.3581 286.768 35.8867C286.275 36.4154 286.029 37.1992 286.029 38.2383C286.029 39.6966 286.421 40.7995 287.205 41.5469C288.007 42.2943 289.046 42.668 290.322 42.668ZM341.443 23.0078H336.275C336.64 24.0651 336.822 25.25 336.822 26.5625C336.822 29.8984 335.61 32.4414 333.185 34.1914C330.779 35.9414 327.37 36.8164 322.959 36.8164C321.938 36.8164 321.036 36.7526 320.252 36.625C319.869 36.9349 319.577 37.3177 319.377 37.7734C319.176 38.2109 319.076 38.6758 319.076 39.168C319.076 40.043 319.349 40.6263 319.896 40.918C320.443 41.2096 321.4 41.3555 322.767 41.3555H327.963C332.556 41.3555 335.701 42.2487 337.396 44.0352C339.11 45.8034 339.967 48.0547 339.967 50.7891C339.967 53.1224 339.219 55.1458 337.724 56.8594C336.248 58.5729 334.279 59.8763 331.818 60.7695C329.357 61.6628 326.705 62.1094 323.861 62.1094C319.03 62.1094 315.293 61.3255 312.65 59.7578C310.025 58.2083 308.713 55.957 308.713 53.0039C308.713 51.5638 309.15 50.2786 310.025 49.1484C310.918 48.0365 312.085 47.1615 313.525 46.5234C312.65 46.0677 312.003 45.4206 311.584 44.582C311.183 43.7435 310.982 42.8411 310.982 41.875C310.982 40.6354 311.365 39.4414 312.131 38.293C312.896 37.1445 314.172 36.2057 315.959 35.4766C313.972 34.6198 312.404 33.4349 311.256 31.9219C310.125 30.3906 309.56 28.6862 309.56 26.8086C309.56 23.2357 310.782 20.6107 313.224 18.9336C315.667 17.2383 319.094 16.3906 323.506 16.3906C327.534 16.3906 330.679 17.1471 332.939 18.6602C333.541 18.1315 334.261 17.694 335.099 17.3477C335.938 17.0013 336.895 16.8281 337.97 16.8281H341.443V23.0078ZM323.095 31.5938C324.882 31.5938 326.267 31.2474 327.252 30.5547C328.254 29.862 328.756 28.6133 328.756 26.8086C328.756 25.1133 328.309 23.8372 327.416 22.9805C326.541 22.1055 325.228 21.668 323.478 21.668C321.71 21.668 320.316 22.0508 319.295 22.8164C318.292 23.5638 317.791 24.8581 317.791 26.6992C317.791 28.2305 318.247 29.4336 319.158 30.3086C320.069 31.1654 321.382 31.5938 323.095 31.5938ZM320.033 48C319.632 48 319.067 47.9818 318.338 47.9453C317.572 48.638 317.189 49.6953 317.189 51.1172C317.189 52.8307 317.718 54.2526 318.775 55.3828C319.851 56.513 321.546 57.0781 323.861 57.0781C326.267 57.0781 328.145 56.7044 329.494 55.957C330.861 55.2279 331.545 54.0703 331.545 52.4844C331.545 51.4089 331.381 50.5521 331.053 49.9141C330.724 49.2943 330.05 48.8203 329.029 48.4922C328.008 48.1641 326.495 48 324.49 48H320.033ZM353.544 16.8281V48H345.013V16.8281H353.544ZM343.974 7.61328C343.974 6.70182 344.229 5.85417 344.74 5.07031C345.25 4.28646 345.925 3.66667 346.763 3.21094C347.602 2.73698 348.486 2.5 349.415 2.5C350.91 2.5 352.104 2.9375 352.997 3.8125C353.891 4.66927 354.337 5.78125 354.337 7.14844C354.337 8.0599 354.082 8.91667 353.572 9.71875C353.08 10.5026 352.414 11.1315 351.576 11.6055C350.755 12.0612 349.871 12.2891 348.923 12.2891C347.994 12.2891 347.155 12.0885 346.408 11.6875C345.66 11.2865 345.068 10.7305 344.63 10.0195C344.193 9.30859 343.974 8.50651 343.974 7.61328ZM369.118 16.8281L369.282 20.1641C370.54 19.2161 372.108 18.3503 373.985 17.5664C375.863 16.7826 377.677 16.3633 379.427 16.3086C381.669 16.2357 383.501 16.5911 384.923 17.375C386.345 18.1406 387.402 19.4258 388.095 21.2305C388.806 23.0169 389.161 25.4232 389.161 28.4492V48H380.63V30.2812C380.63 28.513 380.493 27.1458 380.22 26.1797C379.946 25.1953 379.482 24.4935 378.825 24.0742C378.169 23.6549 377.239 23.4635 376.036 23.5C375.125 23.5182 374.095 23.7279 372.946 24.1289C371.798 24.5299 370.786 25.1133 369.911 25.8789V48H361.38V16.8281H369.118ZM427.13 23.0078H421.962C422.326 24.0651 422.509 25.25 422.509 26.5625C422.509 29.8984 421.296 32.4414 418.872 34.1914C416.466 35.9414 413.057 36.8164 408.645 36.8164C407.624 36.8164 406.722 36.7526 405.938 36.625C405.555 36.9349 405.264 37.3177 405.063 37.7734C404.863 38.2109 404.763 38.6758 404.763 39.168C404.763 40.043 405.036 40.6263 405.583 40.918C406.13 41.2096 407.087 41.3555 408.454 41.3555H413.649C418.243 41.3555 421.388 42.2487 423.083 44.0352C424.796 45.8034 425.653 48.0547 425.653 50.7891C425.653 53.1224 424.906 55.1458 423.411 56.8594C421.934 58.5729 419.966 59.8763 417.505 60.7695C415.044 61.6628 412.391 62.1094 409.548 62.1094C404.717 62.1094 400.98 61.3255 398.337 59.7578C395.712 58.2083 394.399 55.957 394.399 53.0039C394.399 51.5638 394.837 50.2786 395.712 49.1484C396.605 48.0365 397.772 47.1615 399.212 46.5234C398.337 46.0677 397.69 45.4206 397.27 44.582C396.869 43.7435 396.669 42.8411 396.669 41.875C396.669 40.6354 397.052 39.4414 397.817 38.293C398.583 37.1445 399.859 36.2057 401.645 35.4766C399.658 34.6198 398.091 33.4349 396.942 31.9219C395.812 30.3906 395.247 28.6862 395.247 26.8086C395.247 23.2357 396.468 20.6107 398.911 18.9336C401.354 17.2383 404.781 16.3906 409.192 16.3906C413.221 16.3906 416.365 17.1471 418.626 18.6602C419.227 18.1315 419.947 17.694 420.786 17.3477C421.624 17.0013 422.582 16.8281 423.657 16.8281H427.13V23.0078ZM408.782 31.5938C410.569 31.5938 411.954 31.2474 412.938 30.5547C413.941 29.862 414.442 28.6133 414.442 26.8086C414.442 25.1133 413.996 23.8372 413.102 22.9805C412.227 22.1055 410.915 21.668 409.165 21.668C407.397 21.668 406.002 22.0508 404.981 22.8164C403.979 23.5638 403.477 24.8581 403.477 26.6992C403.477 28.2305 403.933 29.4336 404.845 30.3086C405.756 31.1654 407.069 31.5938 408.782 31.5938ZM405.72 48C405.319 48 404.753 47.9818 404.024 47.9453C403.259 48.638 402.876 49.6953 402.876 51.1172C402.876 52.8307 403.404 54.2526 404.462 55.3828C405.537 56.513 407.233 57.0781 409.548 57.0781C411.954 57.0781 413.832 56.7044 415.18 55.957C416.548 55.2279 417.231 54.0703 417.231 52.4844C417.231 51.4089 417.067 50.5521 416.739 49.9141C416.411 49.2943 415.736 48.8203 414.716 48.4922C413.695 48.1641 412.182 48 410.177 48H405.72ZM429.961 39.6875C430.308 39.9609 430.955 40.2982 431.903 40.6992C432.851 41.082 433.944 41.4193 435.184 41.7109C436.442 42.0026 437.681 42.1484 438.903 42.1484C440.598 42.1667 441.838 41.9753 442.622 41.5742C443.405 41.1732 443.797 40.4987 443.797 39.5508C443.797 38.6758 443.25 37.8828 442.157 37.1719C441.081 36.4609 439.377 35.7227 437.043 34.957C434.273 34.0456 432.267 32.806 431.028 31.2383C429.806 29.6706 429.196 27.7383 429.196 25.4414C429.196 23.5091 429.724 21.8685 430.782 20.5195C431.857 19.1523 433.343 18.1224 435.239 17.4297C437.135 16.737 439.313 16.3906 441.774 16.3906C443.761 16.3906 445.538 16.582 447.106 16.9648C448.674 17.3477 449.822 17.7487 450.551 18.168L449.622 24.7305C449.002 24.1654 447.999 23.6732 446.614 23.2539C445.247 22.8346 443.916 22.625 442.622 22.625C440.762 22.625 439.413 22.8255 438.575 23.2266C437.754 23.6094 437.344 24.2474 437.344 25.1406C437.344 25.7786 437.536 26.3255 437.918 26.7812C438.301 27.2188 438.912 27.6471 439.75 28.0664C440.607 28.4674 441.838 28.9414 443.442 29.4883C445.575 30.2174 447.27 31.0195 448.528 31.8945C449.804 32.7513 450.734 33.7448 451.317 34.875C451.9 35.987 452.192 37.3177 452.192 38.8672C452.192 42.0208 451.107 44.4089 448.938 46.0312C446.787 47.6354 443.797 48.4375 439.969 48.4375C438.529 48.4375 437.08 48.319 435.622 48.082C434.163 47.8451 432.851 47.5443 431.684 47.1797C430.536 46.7969 429.67 46.4141 429.086 46.0312L429.961 39.6875Z" fill="white"/>
<defs>
<clipPath id="clip0">
<rect width="56" height="56" fill="white"/>
</clipPath>
</defs>
</svg>
